<?xml version="1.0" encoding="UTF-8"?>
<!-- Generated by Pixelmator Pro 3.7 -->
<svg width="1250" height="1041" viewBox="0 0 1250 1041" xmlns="http://www.w3.org/2000/svg">
    <g id="Layer-1">
        <g id="Group">
            <path id="Path" fill="none" stroke="none" d="M 469.2146 466.481079 C 475.719025 466.913025 479.789063 467.417053 483.859436 467.419189 C 564.027405 467.459656 644.205872 468.200745 724.358704 467.082886 C 758.932922 466.600647 793.701721 464.031494 827.943237 459.259766 C 887.535583 450.955139 931.979431 421.172302 952.822693 362.165222 C 966.562134 323.269104 955.263794 299.261963 915.212158 290.790527 C 885.175415 284.437683 854.049622 286.777832 823.338196 286.262207 L 551.617859 285.865051 C 547.658691 289.279785 544.522156 294.119812 541.683289 300.907715 C 518.750977 355.742432 494.148651 409.87854 469.2146 466.481079 Z"/>
            <path id="path1" fill="#111827" stroke="none" d="M 724.358704 467.082886 C 644.205872 468.200745 564.027405 467.459656 483.859436 467.419189 C 479.789063 467.417053 475.719025 466.913025 469.2146 466.481079 C 494.148651 409.87854 518.750977 355.742432 541.683289 300.907715 C 544.522156 294.119812 547.658691 289.279785 551.617859 285.865051 L 342.342896 285.559387 C 260.177399 469.638306 179.055176 654.182251 97.632225 838.592102 C 90.298721 855.201111 83.153061 871.893066 75 890.665649 C 81.568802 890.665649 86.0662 890.665649 90.563942 890.665649 C 149.156647 890.665649 207.754974 890.243164 266.338196 891.003296 C 278.828583 891.165405 283.973541 886.742615 288.748108 875.762939 C 327.223907 787.282959 366.557587 699.17688 405.200134 610.769043 C 409.149872 601.732727 413.847748 598.350708 423.879456 598.412598 C 495.594299 598.855835 567.316162 598.97644 639.028259 598.338074 C 651.588257 598.226196 656.575989 601.980713 660.146179 614.129578 C 686.022888 702.187134 712.782104 789.985413 739.30249 877.853333 C 741.274719 884.387329 741.97821 890.943481 752.262817 890.889709 C 827.716675 890.49646 903.174438 890.596313 978.629028 890.981812 L 868.0047 581.535278 L 827.943237 459.259766 C 793.701721 464.031494 758.932922 466.600647 724.358704 467.082886 Z"/>
            <path id="path2" fill="#dc143c" stroke="none" d="M 1106.95105 175.728577 C 1083.181885 166.424988 1057.712158 158.817505 1032.460938 156.494568 C 977.976929 151.482605 923.15033 148.620117 868.431335 148.060852 C 749.383118 146.844177 630.314148 147.752014 511.253937 147.520203 C 459.6539 147.419922 416.363739 164.23291 387.122986 208.566345 C 371.954071 231.564331 356.125244 254.671082 344.959869 279.677917 C 344.085083 281.637085 343.217316 283.599854 342.342896 285.559387 L 551.617859 285.865051 L 823.338196 286.262207 C 854.049622 286.777832 885.175415 284.437683 915.212158 290.790527 C 955.263794 299.261963 966.562134 323.269104 952.822693 362.165222 C 931.979431 421.172302 887.535583 450.955139 827.943237 459.259766 L 868.0047 581.535278 C 890.488831 576.130737 911.725342 572.328369 932.138062 565.907288 C 1059.137085 525.957703 1144.790894 444.708496 1178.169067 313.813171 C 1195.045044 247.631958 1170.367798 200.550781 1106.95105 175.728577 Z"/>
        </g>
    </g>
</svg>
